<?xml version="1.0" standalone="no"?>
<!DOCTYPE svg PUBLIC "-//W3C//DTD SVG 1.1//EN" "http://www.w3.org/Graphics/SVG/1.1/DTD/svg11.dtd">
<svg width="800" height="600" version="1.1" xmlns="http://www.w3.org/2000/svg">
<rect width="800" height="600" x="0" y="0" style="fill:rgb(238,238,238);stroke:none"/>
<rect width="800" height="600" x="0" y="0" style="fill:rgb(255,255,255);stroke:none"/>
<text x="2" y="566" fill="rgb(0,0,0)" font-family="Arial" font-size="12">0</text>
<text x="2" y="486" fill="rgb(0,0,0)" font-family="Arial" font-size="12">1000000</text>
<text x="2" y="406" fill="rgb(0,0,0)" font-family="Arial" font-size="12">2000000</text>
<text x="2" y="325" fill="rgb(0,0,0)" font-family="Arial" font-size="12">3000000</text>
<text x="2" y="245" fill="rgb(0,0,0)" font-family="Arial" font-size="12">4000000</text>
<text x="2" y="164" fill="rgb(0,0,0)" font-family="Arial" font-size="12">5000000</text>
<text x="2" y="84" fill="rgb(0,0,0)" font-family="Arial" font-size="12">6000000</text>
<text x="298" y="30" fill="rgb(0,0,0)" font-family="Arial" font-size="12">Quality score distribution over all sequences</text>
<line x1="61" y1="560" x2="790" y2="560" stroke="rgb(0,0,0)" stroke-width="1"/>
<line x1="61" y1="560" x2="61" y2="40" stroke="rgb(0,0,0)" stroke-width="1"/>
<text x="293" y="595" fill="rgb(0,0,0)" font-family="Arial" font-size="12">Mean Sequence Quality (Phred Score)</text>
<text x="71" y="575" fill="rgb(0,0,0)" font-family="Arial" font-size="12">16</text>
<rect width="36" height="520" x="97" y="40" style="fill:rgb(230,230,230);stroke:none"/>
<text x="107" y="575" fill="rgb(0,0,0)" font-family="Arial" font-size="12">17</text>
<text x="143" y="575" fill="rgb(0,0,0)" font-family="Arial" font-size="12">18</text>
<rect width="36" height="520" x="169" y="40" style="fill:rgb(230,230,230);stroke:none"/>
<text x="179" y="575" fill="rgb(0,0,0)" font-family="Arial" font-size="12">19</text>
<text x="215" y="575" fill="rgb(0,0,0)" font-family="Arial" font-size="12">20</text>
<rect width="36" height="520" x="241" y="40" style="fill:rgb(230,230,230);stroke:none"/>
<text x="251" y="575" fill="rgb(0,0,0)" font-family="Arial" font-size="12">21</text>
<text x="287" y="575" fill="rgb(0,0,0)" font-family="Arial" font-size="12">22</text>
<rect width="36" height="520" x="313" y="40" style="fill:rgb(230,230,230);stroke:none"/>
<text x="323" y="575" fill="rgb(0,0,0)" font-family="Arial" font-size="12">23</text>
<text x="359" y="575" fill="rgb(0,0,0)" font-family="Arial" font-size="12">24</text>
<rect width="36" height="520" x="385" y="40" style="fill:rgb(230,230,230);stroke:none"/>
<text x="395" y="575" fill="rgb(0,0,0)" font-family="Arial" font-size="12">25</text>
<text x="431" y="575" fill="rgb(0,0,0)" font-family="Arial" font-size="12">26</text>
<rect width="36" height="520" x="457" y="40" style="fill:rgb(230,230,230);stroke:none"/>
<text x="467" y="575" fill="rgb(0,0,0)" font-family="Arial" font-size="12">27</text>
<text x="503" y="575" fill="rgb(0,0,0)" font-family="Arial" font-size="12">28</text>
<rect width="36" height="520" x="529" y="40" style="fill:rgb(230,230,230);stroke:none"/>
<text x="539" y="575" fill="rgb(0,0,0)" font-family="Arial" font-size="12">29</text>
<text x="575" y="575" fill="rgb(0,0,0)" font-family="Arial" font-size="12">30</text>
<rect width="36" height="520" x="601" y="40" style="fill:rgb(230,230,230);stroke:none"/>
<text x="611" y="575" fill="rgb(0,0,0)" font-family="Arial" font-size="12">31</text>
<text x="647" y="575" fill="rgb(0,0,0)" font-family="Arial" font-size="12">32</text>
<rect width="36" height="520" x="673" y="40" style="fill:rgb(230,230,230);stroke:none"/>
<text x="683" y="575" fill="rgb(0,0,0)" font-family="Arial" font-size="12">33</text>
<text x="719" y="575" fill="rgb(0,0,0)" font-family="Arial" font-size="12">34</text>
<rect width="36" height="520" x="745" y="40" style="fill:rgb(230,230,230);stroke:none"/>
<text x="755" y="575" fill="rgb(0,0,0)" font-family="Arial" font-size="12">35</text>
<line x1="61" y1="560" x2="790" y2="560" stroke="rgb(180,180,180)" stroke-width="1"/>
<line x1="61" y1="480" x2="790" y2="480" stroke="rgb(180,180,180)" stroke-width="1"/>
<line x1="61" y1="400" x2="790" y2="400" stroke="rgb(180,180,180)" stroke-width="1"/>
<line x1="61" y1="319" x2="790" y2="319" stroke="rgb(180,180,180)" stroke-width="1"/>
<line x1="61" y1="239" x2="790" y2="239" stroke="rgb(180,180,180)" stroke-width="1"/>
<line x1="61" y1="158" x2="790" y2="158" stroke="rgb(180,180,180)" stroke-width="1"/>
<line x1="61" y1="78" x2="790" y2="78" stroke="rgb(180,180,180)" stroke-width="1"/>
<line x1="79" y1="560" x2="115" y2="560" stroke="rgb(136,34,85)" stroke-width="1"/>
<line x1="115" y1="560" x2="151" y2="560" stroke="rgb(136,34,85)" stroke-width="1"/>
<line x1="151" y1="560" x2="187" y2="560" stroke="rgb(136,34,85)" stroke-width="1"/>
<line x1="187" y1="560" x2="223" y2="560" stroke="rgb(136,34,85)" stroke-width="1"/>
<line x1="223" y1="560" x2="259" y2="558" stroke="rgb(136,34,85)" stroke-width="1"/>
<line x1="259" y1="558" x2="295" y2="554" stroke="rgb(136,34,85)" stroke-width="1"/>
<line x1="295" y1="554" x2="331" y2="549" stroke="rgb(136,34,85)" stroke-width="1"/>
<line x1="331" y1="549" x2="367" y2="540" stroke="rgb(136,34,85)" stroke-width="1"/>
<line x1="367" y1="540" x2="403" y2="529" stroke="rgb(136,34,85)" stroke-width="1"/>
<line x1="403" y1="529" x2="439" y2="514" stroke="rgb(136,34,85)" stroke-width="1"/>
<line x1="439" y1="514" x2="475" y2="496" stroke="rgb(136,34,85)" stroke-width="1"/>
<line x1="475" y1="496" x2="511" y2="477" stroke="rgb(136,34,85)" stroke-width="1"/>
<line x1="511" y1="477" x2="547" y2="456" stroke="rgb(136,34,85)" stroke-width="1"/>
<line x1="547" y1="456" x2="583" y2="429" stroke="rgb(136,34,85)" stroke-width="1"/>
<line x1="583" y1="429" x2="619" y2="394" stroke="rgb(136,34,85)" stroke-width="1"/>
<line x1="619" y1="394" x2="655" y2="340" stroke="rgb(136,34,85)" stroke-width="1"/>
<line x1="655" y1="340" x2="691" y2="242" stroke="rgb(136,34,85)" stroke-width="1"/>
<line x1="691" y1="242" x2="727" y2="40" stroke="rgb(136,34,85)" stroke-width="1"/>
<line x1="727" y1="40" x2="763" y2="110" stroke="rgb(136,34,85)" stroke-width="1"/>
<rect width="160" height="23" x="630" y="40" style="fill:rgb(255,255,255);stroke:none"/>
<rect width="160" height="23" x="630" y="40" rx="0" ry="0" style="fill:none;stroke-width:1;stroke:rgb(192,192,192)"/>
<text x="633" y="55" fill="rgb(136,34,85)" font-family="Arial" font-size="12" font-weight="bold">Average Quality per read</text>
</svg>
