<?xml version="1.0" standalone="no"?>
<!DOCTYPE svg PUBLIC "-//W3C//DTD SVG 1.1//EN" "http://www.w3.org/Graphics/SVG/1.1/DTD/svg11.dtd">
<svg width="800" height="600" version="1.1" xmlns="http://www.w3.org/2000/svg">
<rect width="800" height="600" x="0" y="0" style="fill:rgb(238,238,238);stroke:none"/>
<rect width="800" height="600" x="0" y="0" style="fill:rgb(255,255,255);stroke:none"/>
<text x="2" y="566" fill="rgb(0,0,0)" font-family="Arial" font-size="12">0</text>
<text x="2" y="538" fill="rgb(0,0,0)" font-family="Arial" font-size="12">2</text>
<text x="2" y="509" fill="rgb(0,0,0)" font-family="Arial" font-size="12">4</text>
<text x="2" y="480" fill="rgb(0,0,0)" font-family="Arial" font-size="12">6</text>
<text x="2" y="451" fill="rgb(0,0,0)" font-family="Arial" font-size="12">8</text>
<text x="2" y="422" fill="rgb(0,0,0)" font-family="Arial" font-size="12">10</text>
<text x="2" y="393" fill="rgb(0,0,0)" font-family="Arial" font-size="12">12</text>
<text x="2" y="364" fill="rgb(0,0,0)" font-family="Arial" font-size="12">14</text>
<text x="2" y="335" fill="rgb(0,0,0)" font-family="Arial" font-size="12">16</text>
<text x="2" y="306" fill="rgb(0,0,0)" font-family="Arial" font-size="12">18</text>
<text x="2" y="278" fill="rgb(0,0,0)" font-family="Arial" font-size="12">20</text>
<text x="2" y="249" fill="rgb(0,0,0)" font-family="Arial" font-size="12">22</text>
<text x="2" y="220" fill="rgb(0,0,0)" font-family="Arial" font-size="12">24</text>
<text x="2" y="191" fill="rgb(0,0,0)" font-family="Arial" font-size="12">26</text>
<text x="2" y="162" fill="rgb(0,0,0)" font-family="Arial" font-size="12">28</text>
<text x="2" y="133" fill="rgb(0,0,0)" font-family="Arial" font-size="12">30</text>
<text x="2" y="104" fill="rgb(0,0,0)" font-family="Arial" font-size="12">32</text>
<text x="2" y="75" fill="rgb(0,0,0)" font-family="Arial" font-size="12">34</text>
<text x="2" y="46" fill="rgb(0,0,0)" font-family="Arial" font-size="12">36</text>
<text x="223" y="30" fill="rgb(0,0,0)" font-family="Arial" font-size="12">Quality scores across all bases (Sanger / Illumina 1.9 encoding)</text>
<rect width="17" height="288" x="21" y="272" style="fill:rgb(230,175,175);stroke:none"/>
<rect width="17" height="116" x="21" y="156" style="fill:rgb(230,215,175);stroke:none"/>
<rect width="17" height="116" x="21" y="40" style="fill:rgb(175,230,175);stroke:none"/>
<text x="25" y="575" fill="rgb(0,0,0)" font-family="Arial" font-size="12">1</text>
<rect width="17" height="288" x="38" y="272" style="fill:rgb(230,195,195);stroke:none"/>
<rect width="17" height="116" x="38" y="156" style="fill:rgb(230,220,195);stroke:none"/>
<rect width="17" height="116" x="38" y="40" style="fill:rgb(195,230,195);stroke:none"/>
<text x="42" y="575" fill="rgb(0,0,0)" font-family="Arial" font-size="12">2</text>
<rect width="17" height="288" x="55" y="272" style="fill:rgb(230,175,175);stroke:none"/>
<rect width="17" height="116" x="55" y="156" style="fill:rgb(230,215,175);stroke:none"/>
<rect width="17" height="116" x="55" y="40" style="fill:rgb(175,230,175);stroke:none"/>
<text x="59" y="575" fill="rgb(0,0,0)" font-family="Arial" font-size="12">3</text>
<rect width="17" height="288" x="72" y="272" style="fill:rgb(230,195,195);stroke:none"/>
<rect width="17" height="116" x="72" y="156" style="fill:rgb(230,220,195);stroke:none"/>
<rect width="17" height="116" x="72" y="40" style="fill:rgb(195,230,195);stroke:none"/>
<text x="76" y="575" fill="rgb(0,0,0)" font-family="Arial" font-size="12">4</text>
<rect width="17" height="288" x="89" y="272" style="fill:rgb(230,175,175);stroke:none"/>
<rect width="17" height="116" x="89" y="156" style="fill:rgb(230,215,175);stroke:none"/>
<rect width="17" height="116" x="89" y="40" style="fill:rgb(175,230,175);stroke:none"/>
<text x="93" y="575" fill="rgb(0,0,0)" font-family="Arial" font-size="12">5</text>
<rect width="17" height="288" x="106" y="272" style="fill:rgb(230,195,195);stroke:none"/>
<rect width="17" height="116" x="106" y="156" style="fill:rgb(230,220,195);stroke:none"/>
<rect width="17" height="116" x="106" y="40" style="fill:rgb(195,230,195);stroke:none"/>
<text x="110" y="575" fill="rgb(0,0,0)" font-family="Arial" font-size="12">6</text>
<rect width="17" height="288" x="123" y="272" style="fill:rgb(230,175,175);stroke:none"/>
<rect width="17" height="116" x="123" y="156" style="fill:rgb(230,215,175);stroke:none"/>
<rect width="17" height="116" x="123" y="40" style="fill:rgb(175,230,175);stroke:none"/>
<text x="127" y="575" fill="rgb(0,0,0)" font-family="Arial" font-size="12">7</text>
<rect width="17" height="288" x="140" y="272" style="fill:rgb(230,195,195);stroke:none"/>
<rect width="17" height="116" x="140" y="156" style="fill:rgb(230,220,195);stroke:none"/>
<rect width="17" height="116" x="140" y="40" style="fill:rgb(195,230,195);stroke:none"/>
<text x="144" y="575" fill="rgb(0,0,0)" font-family="Arial" font-size="12">8</text>
<rect width="17" height="288" x="157" y="272" style="fill:rgb(230,175,175);stroke:none"/>
<rect width="17" height="116" x="157" y="156" style="fill:rgb(230,215,175);stroke:none"/>
<rect width="17" height="116" x="157" y="40" style="fill:rgb(175,230,175);stroke:none"/>
<text x="161" y="575" fill="rgb(0,0,0)" font-family="Arial" font-size="12">9</text>
<rect width="17" height="288" x="174" y="272" style="fill:rgb(230,195,195);stroke:none"/>
<rect width="17" height="116" x="174" y="156" style="fill:rgb(230,220,195);stroke:none"/>
<rect width="17" height="116" x="174" y="40" style="fill:rgb(195,230,195);stroke:none"/>
<rect width="17" height="288" x="191" y="272" style="fill:rgb(230,175,175);stroke:none"/>
<rect width="17" height="116" x="191" y="156" style="fill:rgb(230,215,175);stroke:none"/>
<rect width="17" height="116" x="191" y="40" style="fill:rgb(175,230,175);stroke:none"/>
<text x="180" y="575" fill="rgb(0,0,0)" font-family="Arial" font-size="12">12-13</text>
<rect width="17" height="288" x="208" y="272" style="fill:rgb(230,195,195);stroke:none"/>
<rect width="17" height="116" x="208" y="156" style="fill:rgb(230,220,195);stroke:none"/>
<rect width="17" height="116" x="208" y="40" style="fill:rgb(195,230,195);stroke:none"/>
<rect width="17" height="288" x="225" y="272" style="fill:rgb(230,175,175);stroke:none"/>
<rect width="17" height="116" x="225" y="156" style="fill:rgb(230,215,175);stroke:none"/>
<rect width="17" height="116" x="225" y="40" style="fill:rgb(175,230,175);stroke:none"/>
<rect width="17" height="288" x="242" y="272" style="fill:rgb(230,195,195);stroke:none"/>
<rect width="17" height="116" x="242" y="156" style="fill:rgb(230,220,195);stroke:none"/>
<rect width="17" height="116" x="242" y="40" style="fill:rgb(195,230,195);stroke:none"/>
<text x="231" y="575" fill="rgb(0,0,0)" font-family="Arial" font-size="12">18-19</text>
<rect width="17" height="288" x="259" y="272" style="fill:rgb(230,175,175);stroke:none"/>
<rect width="17" height="116" x="259" y="156" style="fill:rgb(230,215,175);stroke:none"/>
<rect width="17" height="116" x="259" y="40" style="fill:rgb(175,230,175);stroke:none"/>
<rect width="17" height="288" x="276" y="272" style="fill:rgb(230,195,195);stroke:none"/>
<rect width="17" height="116" x="276" y="156" style="fill:rgb(230,220,195);stroke:none"/>
<rect width="17" height="116" x="276" y="40" style="fill:rgb(195,230,195);stroke:none"/>
<rect width="17" height="288" x="293" y="272" style="fill:rgb(230,175,175);stroke:none"/>
<rect width="17" height="116" x="293" y="156" style="fill:rgb(230,215,175);stroke:none"/>
<rect width="17" height="116" x="293" y="40" style="fill:rgb(175,230,175);stroke:none"/>
<text x="282" y="575" fill="rgb(0,0,0)" font-family="Arial" font-size="12">24-25</text>
<rect width="17" height="288" x="310" y="272" style="fill:rgb(230,195,195);stroke:none"/>
<rect width="17" height="116" x="310" y="156" style="fill:rgb(230,220,195);stroke:none"/>
<rect width="17" height="116" x="310" y="40" style="fill:rgb(195,230,195);stroke:none"/>
<rect width="17" height="288" x="327" y="272" style="fill:rgb(230,175,175);stroke:none"/>
<rect width="17" height="116" x="327" y="156" style="fill:rgb(230,215,175);stroke:none"/>
<rect width="17" height="116" x="327" y="40" style="fill:rgb(175,230,175);stroke:none"/>
<rect width="17" height="288" x="344" y="272" style="fill:rgb(230,195,195);stroke:none"/>
<rect width="17" height="116" x="344" y="156" style="fill:rgb(230,220,195);stroke:none"/>
<rect width="17" height="116" x="344" y="40" style="fill:rgb(195,230,195);stroke:none"/>
<text x="333" y="575" fill="rgb(0,0,0)" font-family="Arial" font-size="12">30-31</text>
<rect width="17" height="288" x="361" y="272" style="fill:rgb(230,175,175);stroke:none"/>
<rect width="17" height="116" x="361" y="156" style="fill:rgb(230,215,175);stroke:none"/>
<rect width="17" height="116" x="361" y="40" style="fill:rgb(175,230,175);stroke:none"/>
<rect width="17" height="288" x="378" y="272" style="fill:rgb(230,195,195);stroke:none"/>
<rect width="17" height="116" x="378" y="156" style="fill:rgb(230,220,195);stroke:none"/>
<rect width="17" height="116" x="378" y="40" style="fill:rgb(195,230,195);stroke:none"/>
<rect width="17" height="288" x="395" y="272" style="fill:rgb(230,175,175);stroke:none"/>
<rect width="17" height="116" x="395" y="156" style="fill:rgb(230,215,175);stroke:none"/>
<rect width="17" height="116" x="395" y="40" style="fill:rgb(175,230,175);stroke:none"/>
<text x="384" y="575" fill="rgb(0,0,0)" font-family="Arial" font-size="12">36-37</text>
<rect width="17" height="288" x="412" y="272" style="fill:rgb(230,195,195);stroke:none"/>
<rect width="17" height="116" x="412" y="156" style="fill:rgb(230,220,195);stroke:none"/>
<rect width="17" height="116" x="412" y="40" style="fill:rgb(195,230,195);stroke:none"/>
<rect width="17" height="288" x="429" y="272" style="fill:rgb(230,175,175);stroke:none"/>
<rect width="17" height="116" x="429" y="156" style="fill:rgb(230,215,175);stroke:none"/>
<rect width="17" height="116" x="429" y="40" style="fill:rgb(175,230,175);stroke:none"/>
<rect width="17" height="288" x="446" y="272" style="fill:rgb(230,195,195);stroke:none"/>
<rect width="17" height="116" x="446" y="156" style="fill:rgb(230,220,195);stroke:none"/>
<rect width="17" height="116" x="446" y="40" style="fill:rgb(195,230,195);stroke:none"/>
<text x="435" y="575" fill="rgb(0,0,0)" font-family="Arial" font-size="12">42-43</text>
<rect width="17" height="288" x="463" y="272" style="fill:rgb(230,175,175);stroke:none"/>
<rect width="17" height="116" x="463" y="156" style="fill:rgb(230,215,175);stroke:none"/>
<rect width="17" height="116" x="463" y="40" style="fill:rgb(175,230,175);stroke:none"/>
<rect width="17" height="288" x="480" y="272" style="fill:rgb(230,195,195);stroke:none"/>
<rect width="17" height="116" x="480" y="156" style="fill:rgb(230,220,195);stroke:none"/>
<rect width="17" height="116" x="480" y="40" style="fill:rgb(195,230,195);stroke:none"/>
<rect width="17" height="288" x="497" y="272" style="fill:rgb(230,175,175);stroke:none"/>
<rect width="17" height="116" x="497" y="156" style="fill:rgb(230,215,175);stroke:none"/>
<rect width="17" height="116" x="497" y="40" style="fill:rgb(175,230,175);stroke:none"/>
<text x="486" y="575" fill="rgb(0,0,0)" font-family="Arial" font-size="12">48-49</text>
<rect width="17" height="288" x="514" y="272" style="fill:rgb(230,195,195);stroke:none"/>
<rect width="17" height="116" x="514" y="156" style="fill:rgb(230,220,195);stroke:none"/>
<rect width="17" height="116" x="514" y="40" style="fill:rgb(195,230,195);stroke:none"/>
<rect width="17" height="288" x="531" y="272" style="fill:rgb(230,175,175);stroke:none"/>
<rect width="17" height="116" x="531" y="156" style="fill:rgb(230,215,175);stroke:none"/>
<rect width="17" height="116" x="531" y="40" style="fill:rgb(175,230,175);stroke:none"/>
<rect width="17" height="288" x="548" y="272" style="fill:rgb(230,195,195);stroke:none"/>
<rect width="17" height="116" x="548" y="156" style="fill:rgb(230,220,195);stroke:none"/>
<rect width="17" height="116" x="548" y="40" style="fill:rgb(195,230,195);stroke:none"/>
<text x="537" y="575" fill="rgb(0,0,0)" font-family="Arial" font-size="12">54-55</text>
<rect width="17" height="288" x="565" y="272" style="fill:rgb(230,175,175);stroke:none"/>
<rect width="17" height="116" x="565" y="156" style="fill:rgb(230,215,175);stroke:none"/>
<rect width="17" height="116" x="565" y="40" style="fill:rgb(175,230,175);stroke:none"/>
<rect width="17" height="288" x="582" y="272" style="fill:rgb(230,195,195);stroke:none"/>
<rect width="17" height="116" x="582" y="156" style="fill:rgb(230,220,195);stroke:none"/>
<rect width="17" height="116" x="582" y="40" style="fill:rgb(195,230,195);stroke:none"/>
<rect width="17" height="288" x="599" y="272" style="fill:rgb(230,175,175);stroke:none"/>
<rect width="17" height="116" x="599" y="156" style="fill:rgb(230,215,175);stroke:none"/>
<rect width="17" height="116" x="599" y="40" style="fill:rgb(175,230,175);stroke:none"/>
<text x="588" y="575" fill="rgb(0,0,0)" font-family="Arial" font-size="12">60-61</text>
<rect width="17" height="288" x="616" y="272" style="fill:rgb(230,195,195);stroke:none"/>
<rect width="17" height="116" x="616" y="156" style="fill:rgb(230,220,195);stroke:none"/>
<rect width="17" height="116" x="616" y="40" style="fill:rgb(195,230,195);stroke:none"/>
<rect width="17" height="288" x="633" y="272" style="fill:rgb(230,175,175);stroke:none"/>
<rect width="17" height="116" x="633" y="156" style="fill:rgb(230,215,175);stroke:none"/>
<rect width="17" height="116" x="633" y="40" style="fill:rgb(175,230,175);stroke:none"/>
<rect width="17" height="288" x="650" y="272" style="fill:rgb(230,195,195);stroke:none"/>
<rect width="17" height="116" x="650" y="156" style="fill:rgb(230,220,195);stroke:none"/>
<rect width="17" height="116" x="650" y="40" style="fill:rgb(195,230,195);stroke:none"/>
<text x="639" y="575" fill="rgb(0,0,0)" font-family="Arial" font-size="12">66-67</text>
<rect width="17" height="288" x="667" y="272" style="fill:rgb(230,175,175);stroke:none"/>
<rect width="17" height="116" x="667" y="156" style="fill:rgb(230,215,175);stroke:none"/>
<rect width="17" height="116" x="667" y="40" style="fill:rgb(175,230,175);stroke:none"/>
<rect width="17" height="288" x="684" y="272" style="fill:rgb(230,195,195);stroke:none"/>
<rect width="17" height="116" x="684" y="156" style="fill:rgb(230,220,195);stroke:none"/>
<rect width="17" height="116" x="684" y="40" style="fill:rgb(195,230,195);stroke:none"/>
<rect width="17" height="288" x="701" y="272" style="fill:rgb(230,175,175);stroke:none"/>
<rect width="17" height="116" x="701" y="156" style="fill:rgb(230,215,175);stroke:none"/>
<rect width="17" height="116" x="701" y="40" style="fill:rgb(175,230,175);stroke:none"/>
<text x="690" y="575" fill="rgb(0,0,0)" font-family="Arial" font-size="12">72-73</text>
<rect width="17" height="288" x="718" y="272" style="fill:rgb(230,195,195);stroke:none"/>
<rect width="17" height="116" x="718" y="156" style="fill:rgb(230,220,195);stroke:none"/>
<rect width="17" height="116" x="718" y="40" style="fill:rgb(195,230,195);stroke:none"/>
<rect width="17" height="288" x="735" y="272" style="fill:rgb(230,175,175);stroke:none"/>
<rect width="17" height="116" x="735" y="156" style="fill:rgb(230,215,175);stroke:none"/>
<rect width="17" height="116" x="735" y="40" style="fill:rgb(175,230,175);stroke:none"/>
<text x="735" y="575" fill="rgb(0,0,0)" font-family="Arial" font-size="12">76</text>
<line x1="21" y1="560" x2="790" y2="560" stroke="rgb(0,0,0)" stroke-width="1"/>
<line x1="21" y1="560" x2="21" y2="40" stroke="rgb(0,0,0)" stroke-width="1"/>
<text x="342" y="595" fill="rgb(0,0,0)" font-family="Arial" font-size="12">Position in read (bp)</text>
<rect width="13" height="0" x="23" y="98" style="fill:rgb(240,240,0);stroke:none"/>
<rect width="13" height="0" x="23" y="98" rx="0" ry="0" style="fill:none;stroke-width:1;stroke:rgb(0,0,0)"/>
<line x1="29" y1="98" x2="29" y2="98" stroke="rgb(0,0,0)" stroke-width="1"/>
<line x1="23" y1="98" x2="36" y2="98" stroke="rgb(0,0,0)" stroke-width="1"/>
<line x1="29" y1="98" x2="29" y2="98" stroke="rgb(0,0,0)" stroke-width="1"/>
<line x1="23" y1="98" x2="36" y2="98" stroke="rgb(0,0,0)" stroke-width="1"/>
<line x1="23" y1="98" x2="36" y2="98" stroke="rgb(200,0,0)" stroke-width="1"/>
<rect width="13" height="0" x="40" y="98" style="fill:rgb(240,240,0);stroke:none"/>
<rect width="13" height="0" x="40" y="98" rx="0" ry="0" style="fill:none;stroke-width:1;stroke:rgb(0,0,0)"/>
<line x1="46" y1="98" x2="46" y2="98" stroke="rgb(0,0,0)" stroke-width="1"/>
<line x1="40" y1="98" x2="53" y2="98" stroke="rgb(0,0,0)" stroke-width="1"/>
<line x1="46" y1="98" x2="46" y2="98" stroke="rgb(0,0,0)" stroke-width="1"/>
<line x1="40" y1="98" x2="53" y2="98" stroke="rgb(0,0,0)" stroke-width="1"/>
<line x1="40" y1="98" x2="53" y2="98" stroke="rgb(200,0,0)" stroke-width="1"/>
<rect width="13" height="0" x="57" y="98" style="fill:rgb(240,240,0);stroke:none"/>
<rect width="13" height="0" x="57" y="98" rx="0" ry="0" style="fill:none;stroke-width:1;stroke:rgb(0,0,0)"/>
<line x1="63" y1="98" x2="63" y2="98" stroke="rgb(0,0,0)" stroke-width="1"/>
<line x1="57" y1="98" x2="70" y2="98" stroke="rgb(0,0,0)" stroke-width="1"/>
<line x1="63" y1="98" x2="63" y2="98" stroke="rgb(0,0,0)" stroke-width="1"/>
<line x1="57" y1="98" x2="70" y2="98" stroke="rgb(0,0,0)" stroke-width="1"/>
<line x1="57" y1="98" x2="70" y2="98" stroke="rgb(200,0,0)" stroke-width="1"/>
<rect width="13" height="0" x="74" y="98" style="fill:rgb(240,240,0);stroke:none"/>
<rect width="13" height="0" x="74" y="98" rx="0" ry="0" style="fill:none;stroke-width:1;stroke:rgb(0,0,0)"/>
<line x1="80" y1="98" x2="80" y2="98" stroke="rgb(0,0,0)" stroke-width="1"/>
<line x1="74" y1="98" x2="87" y2="98" stroke="rgb(0,0,0)" stroke-width="1"/>
<line x1="80" y1="98" x2="80" y2="98" stroke="rgb(0,0,0)" stroke-width="1"/>
<line x1="74" y1="98" x2="87" y2="98" stroke="rgb(0,0,0)" stroke-width="1"/>
<line x1="74" y1="98" x2="87" y2="98" stroke="rgb(200,0,0)" stroke-width="1"/>
<rect width="13" height="0" x="91" y="98" style="fill:rgb(240,240,0);stroke:none"/>
<rect width="13" height="0" x="91" y="98" rx="0" ry="0" style="fill:none;stroke-width:1;stroke:rgb(0,0,0)"/>
<line x1="97" y1="98" x2="97" y2="98" stroke="rgb(0,0,0)" stroke-width="1"/>
<line x1="91" y1="98" x2="104" y2="98" stroke="rgb(0,0,0)" stroke-width="1"/>
<line x1="97" y1="98" x2="97" y2="98" stroke="rgb(0,0,0)" stroke-width="1"/>
<line x1="91" y1="98" x2="104" y2="98" stroke="rgb(0,0,0)" stroke-width="1"/>
<line x1="91" y1="98" x2="104" y2="98" stroke="rgb(200,0,0)" stroke-width="1"/>
<rect width="13" height="0" x="108" y="40" style="fill:rgb(240,240,0);stroke:none"/>
<rect width="13" height="0" x="108" y="40" rx="0" ry="0" style="fill:none;stroke-width:1;stroke:rgb(0,0,0)"/>
<line x1="114" y1="40" x2="114" y2="40" stroke="rgb(0,0,0)" stroke-width="1"/>
<line x1="108" y1="40" x2="121" y2="40" stroke="rgb(0,0,0)" stroke-width="1"/>
<line x1="114" y1="98" x2="114" y2="40" stroke="rgb(0,0,0)" stroke-width="1"/>
<line x1="108" y1="98" x2="121" y2="98" stroke="rgb(0,0,0)" stroke-width="1"/>
<line x1="108" y1="40" x2="121" y2="40" stroke="rgb(200,0,0)" stroke-width="1"/>
<rect width="13" height="0" x="125" y="40" style="fill:rgb(240,240,0);stroke:none"/>
<rect width="13" height="0" x="125" y="40" rx="0" ry="0" style="fill:none;stroke-width:1;stroke:rgb(0,0,0)"/>
<line x1="131" y1="40" x2="131" y2="40" stroke="rgb(0,0,0)" stroke-width="1"/>
<line x1="125" y1="40" x2="138" y2="40" stroke="rgb(0,0,0)" stroke-width="1"/>
<line x1="131" y1="98" x2="131" y2="40" stroke="rgb(0,0,0)" stroke-width="1"/>
<line x1="125" y1="98" x2="138" y2="98" stroke="rgb(0,0,0)" stroke-width="1"/>
<line x1="125" y1="40" x2="138" y2="40" stroke="rgb(200,0,0)" stroke-width="1"/>
<rect width="13" height="0" x="142" y="40" style="fill:rgb(240,240,0);stroke:none"/>
<rect width="13" height="0" x="142" y="40" rx="0" ry="0" style="fill:none;stroke-width:1;stroke:rgb(0,0,0)"/>
<line x1="148" y1="40" x2="148" y2="40" stroke="rgb(0,0,0)" stroke-width="1"/>
<line x1="142" y1="40" x2="155" y2="40" stroke="rgb(0,0,0)" stroke-width="1"/>
<line x1="148" y1="98" x2="148" y2="40" stroke="rgb(0,0,0)" stroke-width="1"/>
<line x1="142" y1="98" x2="155" y2="98" stroke="rgb(0,0,0)" stroke-width="1"/>
<line x1="142" y1="40" x2="155" y2="40" stroke="rgb(200,0,0)" stroke-width="1"/>
<rect width="13" height="0" x="159" y="40" style="fill:rgb(240,240,0);stroke:none"/>
<rect width="13" height="0" x="159" y="40" rx="0" ry="0" style="fill:none;stroke-width:1;stroke:rgb(0,0,0)"/>
<line x1="165" y1="40" x2="165" y2="40" stroke="rgb(0,0,0)" stroke-width="1"/>
<line x1="159" y1="40" x2="172" y2="40" stroke="rgb(0,0,0)" stroke-width="1"/>
<line x1="165" y1="98" x2="165" y2="40" stroke="rgb(0,0,0)" stroke-width="1"/>
<line x1="159" y1="98" x2="172" y2="98" stroke="rgb(0,0,0)" stroke-width="1"/>
<line x1="159" y1="40" x2="172" y2="40" stroke="rgb(200,0,0)" stroke-width="1"/>
<rect width="13" height="0" x="176" y="40" style="fill:rgb(240,240,0);stroke:none"/>
<rect width="13" height="0" x="176" y="40" rx="0" ry="0" style="fill:none;stroke-width:1;stroke:rgb(0,0,0)"/>
<line x1="182" y1="40" x2="182" y2="40" stroke="rgb(0,0,0)" stroke-width="1"/>
<line x1="176" y1="40" x2="189" y2="40" stroke="rgb(0,0,0)" stroke-width="1"/>
<line x1="182" y1="98" x2="182" y2="40" stroke="rgb(0,0,0)" stroke-width="1"/>
<line x1="176" y1="98" x2="189" y2="98" stroke="rgb(0,0,0)" stroke-width="1"/>
<line x1="176" y1="40" x2="189" y2="40" stroke="rgb(200,0,0)" stroke-width="1"/>
<rect width="13" height="0" x="193" y="40" style="fill:rgb(240,240,0);stroke:none"/>
<rect width="13" height="0" x="193" y="40" rx="0" ry="0" style="fill:none;stroke-width:1;stroke:rgb(0,0,0)"/>
<line x1="199" y1="40" x2="199" y2="40" stroke="rgb(0,0,0)" stroke-width="1"/>
<line x1="193" y1="40" x2="206" y2="40" stroke="rgb(0,0,0)" stroke-width="1"/>
<line x1="199" y1="98" x2="199" y2="40" stroke="rgb(0,0,0)" stroke-width="1"/>
<line x1="193" y1="98" x2="206" y2="98" stroke="rgb(0,0,0)" stroke-width="1"/>
<line x1="193" y1="40" x2="206" y2="40" stroke="rgb(200,0,0)" stroke-width="1"/>
<rect width="13" height="0" x="210" y="40" style="fill:rgb(240,240,0);stroke:none"/>
<rect width="13" height="0" x="210" y="40" rx="0" ry="0" style="fill:none;stroke-width:1;stroke:rgb(0,0,0)"/>
<line x1="216" y1="40" x2="216" y2="40" stroke="rgb(0,0,0)" stroke-width="1"/>
<line x1="210" y1="40" x2="223" y2="40" stroke="rgb(0,0,0)" stroke-width="1"/>
<line x1="216" y1="98" x2="216" y2="40" stroke="rgb(0,0,0)" stroke-width="1"/>
<line x1="210" y1="98" x2="223" y2="98" stroke="rgb(0,0,0)" stroke-width="1"/>
<line x1="210" y1="40" x2="223" y2="40" stroke="rgb(200,0,0)" stroke-width="1"/>
<rect width="13" height="0" x="227" y="40" style="fill:rgb(240,240,0);stroke:none"/>
<rect width="13" height="0" x="227" y="40" rx="0" ry="0" style="fill:none;stroke-width:1;stroke:rgb(0,0,0)"/>
<line x1="233" y1="40" x2="233" y2="40" stroke="rgb(0,0,0)" stroke-width="1"/>
<line x1="227" y1="40" x2="240" y2="40" stroke="rgb(0,0,0)" stroke-width="1"/>
<line x1="233" y1="98" x2="233" y2="40" stroke="rgb(0,0,0)" stroke-width="1"/>
<line x1="227" y1="98" x2="240" y2="98" stroke="rgb(0,0,0)" stroke-width="1"/>
<line x1="227" y1="40" x2="240" y2="40" stroke="rgb(200,0,0)" stroke-width="1"/>
<rect width="13" height="0" x="244" y="40" style="fill:rgb(240,240,0);stroke:none"/>
<rect width="13" height="0" x="244" y="40" rx="0" ry="0" style="fill:none;stroke-width:1;stroke:rgb(0,0,0)"/>
<line x1="250" y1="40" x2="250" y2="40" stroke="rgb(0,0,0)" stroke-width="1"/>
<line x1="244" y1="40" x2="257" y2="40" stroke="rgb(0,0,0)" stroke-width="1"/>
<line x1="250" y1="98" x2="250" y2="40" stroke="rgb(0,0,0)" stroke-width="1"/>
<line x1="244" y1="98" x2="257" y2="98" stroke="rgb(0,0,0)" stroke-width="1"/>
<line x1="244" y1="40" x2="257" y2="40" stroke="rgb(200,0,0)" stroke-width="1"/>
<rect width="13" height="0" x="261" y="40" style="fill:rgb(240,240,0);stroke:none"/>
<rect width="13" height="0" x="261" y="40" rx="0" ry="0" style="fill:none;stroke-width:1;stroke:rgb(0,0,0)"/>
<line x1="267" y1="40" x2="267" y2="40" stroke="rgb(0,0,0)" stroke-width="1"/>
<line x1="261" y1="40" x2="274" y2="40" stroke="rgb(0,0,0)" stroke-width="1"/>
<line x1="267" y1="98" x2="267" y2="40" stroke="rgb(0,0,0)" stroke-width="1"/>
<line x1="261" y1="98" x2="274" y2="98" stroke="rgb(0,0,0)" stroke-width="1"/>
<line x1="261" y1="40" x2="274" y2="40" stroke="rgb(200,0,0)" stroke-width="1"/>
<rect width="13" height="0" x="278" y="40" style="fill:rgb(240,240,0);stroke:none"/>
<rect width="13" height="0" x="278" y="40" rx="0" ry="0" style="fill:none;stroke-width:1;stroke:rgb(0,0,0)"/>
<line x1="284" y1="40" x2="284" y2="40" stroke="rgb(0,0,0)" stroke-width="1"/>
<line x1="278" y1="40" x2="291" y2="40" stroke="rgb(0,0,0)" stroke-width="1"/>
<line x1="284" y1="134" x2="284" y2="40" stroke="rgb(0,0,0)" stroke-width="1"/>
<line x1="278" y1="134" x2="291" y2="134" stroke="rgb(0,0,0)" stroke-width="1"/>
<line x1="278" y1="40" x2="291" y2="40" stroke="rgb(200,0,0)" stroke-width="1"/>
<rect width="13" height="0" x="295" y="40" style="fill:rgb(240,240,0);stroke:none"/>
<rect width="13" height="0" x="295" y="40" rx="0" ry="0" style="fill:none;stroke-width:1;stroke:rgb(0,0,0)"/>
<line x1="301" y1="40" x2="301" y2="40" stroke="rgb(0,0,0)" stroke-width="1"/>
<line x1="295" y1="40" x2="308" y2="40" stroke="rgb(0,0,0)" stroke-width="1"/>
<line x1="301" y1="98" x2="301" y2="40" stroke="rgb(0,0,0)" stroke-width="1"/>
<line x1="295" y1="98" x2="308" y2="98" stroke="rgb(0,0,0)" stroke-width="1"/>
<line x1="295" y1="40" x2="308" y2="40" stroke="rgb(200,0,0)" stroke-width="1"/>
<rect width="13" height="0" x="312" y="40" style="fill:rgb(240,240,0);stroke:none"/>
<rect width="13" height="0" x="312" y="40" rx="0" ry="0" style="fill:none;stroke-width:1;stroke:rgb(0,0,0)"/>
<line x1="318" y1="40" x2="318" y2="40" stroke="rgb(0,0,0)" stroke-width="1"/>
<line x1="312" y1="40" x2="325" y2="40" stroke="rgb(0,0,0)" stroke-width="1"/>
<line x1="318" y1="134" x2="318" y2="40" stroke="rgb(0,0,0)" stroke-width="1"/>
<line x1="312" y1="134" x2="325" y2="134" stroke="rgb(0,0,0)" stroke-width="1"/>
<line x1="312" y1="40" x2="325" y2="40" stroke="rgb(200,0,0)" stroke-width="1"/>
<rect width="13" height="0" x="329" y="40" style="fill:rgb(240,240,0);stroke:none"/>
<rect width="13" height="0" x="329" y="40" rx="0" ry="0" style="fill:none;stroke-width:1;stroke:rgb(0,0,0)"/>
<line x1="335" y1="40" x2="335" y2="40" stroke="rgb(0,0,0)" stroke-width="1"/>
<line x1="329" y1="40" x2="342" y2="40" stroke="rgb(0,0,0)" stroke-width="1"/>
<line x1="335" y1="170" x2="335" y2="40" stroke="rgb(0,0,0)" stroke-width="1"/>
<line x1="329" y1="170" x2="342" y2="170" stroke="rgb(0,0,0)" stroke-width="1"/>
<line x1="329" y1="40" x2="342" y2="40" stroke="rgb(200,0,0)" stroke-width="1"/>
<rect width="13" height="0" x="346" y="40" style="fill:rgb(240,240,0);stroke:none"/>
<rect width="13" height="0" x="346" y="40" rx="0" ry="0" style="fill:none;stroke-width:1;stroke:rgb(0,0,0)"/>
<line x1="352" y1="40" x2="352" y2="40" stroke="rgb(0,0,0)" stroke-width="1"/>
<line x1="346" y1="40" x2="359" y2="40" stroke="rgb(0,0,0)" stroke-width="1"/>
<line x1="352" y1="170" x2="352" y2="40" stroke="rgb(0,0,0)" stroke-width="1"/>
<line x1="346" y1="170" x2="359" y2="170" stroke="rgb(0,0,0)" stroke-width="1"/>
<line x1="346" y1="40" x2="359" y2="40" stroke="rgb(200,0,0)" stroke-width="1"/>
<rect width="13" height="0" x="363" y="40" style="fill:rgb(240,240,0);stroke:none"/>
<rect width="13" height="0" x="363" y="40" rx="0" ry="0" style="fill:none;stroke-width:1;stroke:rgb(0,0,0)"/>
<line x1="369" y1="40" x2="369" y2="40" stroke="rgb(0,0,0)" stroke-width="1"/>
<line x1="363" y1="40" x2="376" y2="40" stroke="rgb(0,0,0)" stroke-width="1"/>
<line x1="369" y1="257" x2="369" y2="40" stroke="rgb(0,0,0)" stroke-width="1"/>
<line x1="363" y1="257" x2="376" y2="257" stroke="rgb(0,0,0)" stroke-width="1"/>
<line x1="363" y1="40" x2="376" y2="40" stroke="rgb(200,0,0)" stroke-width="1"/>
<rect width="13" height="0" x="380" y="40" style="fill:rgb(240,240,0);stroke:none"/>
<rect width="13" height="0" x="380" y="40" rx="0" ry="0" style="fill:none;stroke-width:1;stroke:rgb(0,0,0)"/>
<line x1="386" y1="40" x2="386" y2="40" stroke="rgb(0,0,0)" stroke-width="1"/>
<line x1="380" y1="40" x2="393" y2="40" stroke="rgb(0,0,0)" stroke-width="1"/>
<line x1="386" y1="358" x2="386" y2="40" stroke="rgb(0,0,0)" stroke-width="1"/>
<line x1="380" y1="358" x2="393" y2="358" stroke="rgb(0,0,0)" stroke-width="1"/>
<line x1="380" y1="40" x2="393" y2="40" stroke="rgb(200,0,0)" stroke-width="1"/>
<rect width="13" height="0" x="397" y="40" style="fill:rgb(240,240,0);stroke:none"/>
<rect width="13" height="0" x="397" y="40" rx="0" ry="0" style="fill:none;stroke-width:1;stroke:rgb(0,0,0)"/>
<line x1="403" y1="40" x2="403" y2="40" stroke="rgb(0,0,0)" stroke-width="1"/>
<line x1="397" y1="40" x2="410" y2="40" stroke="rgb(0,0,0)" stroke-width="1"/>
<line x1="403" y1="308" x2="403" y2="40" stroke="rgb(0,0,0)" stroke-width="1"/>
<line x1="397" y1="308" x2="410" y2="308" stroke="rgb(0,0,0)" stroke-width="1"/>
<line x1="397" y1="40" x2="410" y2="40" stroke="rgb(200,0,0)" stroke-width="1"/>
<rect width="13" height="29" x="414" y="40" style="fill:rgb(240,240,0);stroke:none"/>
<rect width="13" height="29" x="414" y="40" rx="0" ry="0" style="fill:none;stroke-width:1;stroke:rgb(0,0,0)"/>
<line x1="420" y1="40" x2="420" y2="40" stroke="rgb(0,0,0)" stroke-width="1"/>
<line x1="414" y1="40" x2="427" y2="40" stroke="rgb(0,0,0)" stroke-width="1"/>
<line x1="420" y1="358" x2="420" y2="69" stroke="rgb(0,0,0)" stroke-width="1"/>
<line x1="414" y1="358" x2="427" y2="358" stroke="rgb(0,0,0)" stroke-width="1"/>
<line x1="414" y1="40" x2="427" y2="40" stroke="rgb(200,0,0)" stroke-width="1"/>
<rect width="13" height="58" x="431" y="40" style="fill:rgb(240,240,0);stroke:none"/>
<rect width="13" height="58" x="431" y="40" rx="0" ry="0" style="fill:none;stroke-width:1;stroke:rgb(0,0,0)"/>
<line x1="437" y1="40" x2="437" y2="40" stroke="rgb(0,0,0)" stroke-width="1"/>
<line x1="431" y1="40" x2="444" y2="40" stroke="rgb(0,0,0)" stroke-width="1"/>
<line x1="437" y1="358" x2="437" y2="98" stroke="rgb(0,0,0)" stroke-width="1"/>
<line x1="431" y1="358" x2="444" y2="358" stroke="rgb(0,0,0)" stroke-width="1"/>
<line x1="431" y1="40" x2="444" y2="40" stroke="rgb(200,0,0)" stroke-width="1"/>
<rect width="13" height="58" x="448" y="40" style="fill:rgb(240,240,0);stroke:none"/>
<rect width="13" height="58" x="448" y="40" rx="0" ry="0" style="fill:none;stroke-width:1;stroke:rgb(0,0,0)"/>
<line x1="454" y1="40" x2="454" y2="40" stroke="rgb(0,0,0)" stroke-width="1"/>
<line x1="448" y1="40" x2="461" y2="40" stroke="rgb(0,0,0)" stroke-width="1"/>
<line x1="454" y1="358" x2="454" y2="98" stroke="rgb(0,0,0)" stroke-width="1"/>
<line x1="448" y1="358" x2="461" y2="358" stroke="rgb(0,0,0)" stroke-width="1"/>
<line x1="448" y1="40" x2="461" y2="40" stroke="rgb(200,0,0)" stroke-width="1"/>
<rect width="13" height="94" x="465" y="40" style="fill:rgb(240,240,0);stroke:none"/>
<rect width="13" height="94" x="465" y="40" rx="0" ry="0" style="fill:none;stroke-width:1;stroke:rgb(0,0,0)"/>
<line x1="471" y1="40" x2="471" y2="40" stroke="rgb(0,0,0)" stroke-width="1"/>
<line x1="465" y1="40" x2="478" y2="40" stroke="rgb(0,0,0)" stroke-width="1"/>
<line x1="471" y1="358" x2="471" y2="134" stroke="rgb(0,0,0)" stroke-width="1"/>
<line x1="465" y1="358" x2="478" y2="358" stroke="rgb(0,0,0)" stroke-width="1"/>
<line x1="465" y1="40" x2="478" y2="40" stroke="rgb(200,0,0)" stroke-width="1"/>
<rect width="13" height="94" x="482" y="40" style="fill:rgb(240,240,0);stroke:none"/>
<rect width="13" height="94" x="482" y="40" rx="0" ry="0" style="fill:none;stroke-width:1;stroke:rgb(0,0,0)"/>
<line x1="488" y1="40" x2="488" y2="40" stroke="rgb(0,0,0)" stroke-width="1"/>
<line x1="482" y1="40" x2="495" y2="40" stroke="rgb(0,0,0)" stroke-width="1"/>
<line x1="488" y1="358" x2="488" y2="134" stroke="rgb(0,0,0)" stroke-width="1"/>
<line x1="482" y1="358" x2="495" y2="358" stroke="rgb(0,0,0)" stroke-width="1"/>
<line x1="482" y1="40" x2="495" y2="40" stroke="rgb(200,0,0)" stroke-width="1"/>
<rect width="13" height="94" x="499" y="40" style="fill:rgb(240,240,0);stroke:none"/>
<rect width="13" height="94" x="499" y="40" rx="0" ry="0" style="fill:none;stroke-width:1;stroke:rgb(0,0,0)"/>
<line x1="505" y1="40" x2="505" y2="40" stroke="rgb(0,0,0)" stroke-width="1"/>
<line x1="499" y1="40" x2="512" y2="40" stroke="rgb(0,0,0)" stroke-width="1"/>
<line x1="505" y1="358" x2="505" y2="134" stroke="rgb(0,0,0)" stroke-width="1"/>
<line x1="499" y1="358" x2="512" y2="358" stroke="rgb(0,0,0)" stroke-width="1"/>
<line x1="499" y1="40" x2="512" y2="40" stroke="rgb(200,0,0)" stroke-width="1"/>
<rect width="13" height="130" x="516" y="40" style="fill:rgb(240,240,0);stroke:none"/>
<rect width="13" height="130" x="516" y="40" rx="0" ry="0" style="fill:none;stroke-width:1;stroke:rgb(0,0,0)"/>
<line x1="522" y1="40" x2="522" y2="40" stroke="rgb(0,0,0)" stroke-width="1"/>
<line x1="516" y1="40" x2="529" y2="40" stroke="rgb(0,0,0)" stroke-width="1"/>
<line x1="522" y1="358" x2="522" y2="170" stroke="rgb(0,0,0)" stroke-width="1"/>
<line x1="516" y1="358" x2="529" y2="358" stroke="rgb(0,0,0)" stroke-width="1"/>
<line x1="516" y1="40" x2="529" y2="40" stroke="rgb(200,0,0)" stroke-width="1"/>
<rect width="13" height="130" x="533" y="40" style="fill:rgb(240,240,0);stroke:none"/>
<rect width="13" height="130" x="533" y="40" rx="0" ry="0" style="fill:none;stroke-width:1;stroke:rgb(0,0,0)"/>
<line x1="539" y1="40" x2="539" y2="40" stroke="rgb(0,0,0)" stroke-width="1"/>
<line x1="533" y1="40" x2="546" y2="40" stroke="rgb(0,0,0)" stroke-width="1"/>
<line x1="539" y1="358" x2="539" y2="170" stroke="rgb(0,0,0)" stroke-width="1"/>
<line x1="533" y1="358" x2="546" y2="358" stroke="rgb(0,0,0)" stroke-width="1"/>
<line x1="533" y1="40" x2="546" y2="40" stroke="rgb(200,0,0)" stroke-width="1"/>
<rect width="13" height="130" x="550" y="40" style="fill:rgb(240,240,0);stroke:none"/>
<rect width="13" height="130" x="550" y="40" rx="0" ry="0" style="fill:none;stroke-width:1;stroke:rgb(0,0,0)"/>
<line x1="556" y1="40" x2="556" y2="40" stroke="rgb(0,0,0)" stroke-width="1"/>
<line x1="550" y1="40" x2="563" y2="40" stroke="rgb(0,0,0)" stroke-width="1"/>
<line x1="556" y1="358" x2="556" y2="170" stroke="rgb(0,0,0)" stroke-width="1"/>
<line x1="550" y1="358" x2="563" y2="358" stroke="rgb(0,0,0)" stroke-width="1"/>
<line x1="550" y1="40" x2="563" y2="40" stroke="rgb(200,0,0)" stroke-width="1"/>
<rect width="13" height="130" x="567" y="40" style="fill:rgb(240,240,0);stroke:none"/>
<rect width="13" height="130" x="567" y="40" rx="0" ry="0" style="fill:none;stroke-width:1;stroke:rgb(0,0,0)"/>
<line x1="573" y1="40" x2="573" y2="40" stroke="rgb(0,0,0)" stroke-width="1"/>
<line x1="567" y1="40" x2="580" y2="40" stroke="rgb(0,0,0)" stroke-width="1"/>
<line x1="573" y1="358" x2="573" y2="170" stroke="rgb(0,0,0)" stroke-width="1"/>
<line x1="567" y1="358" x2="580" y2="358" stroke="rgb(0,0,0)" stroke-width="1"/>
<line x1="567" y1="40" x2="580" y2="40" stroke="rgb(200,0,0)" stroke-width="1"/>
<rect width="13" height="217" x="584" y="40" style="fill:rgb(240,240,0);stroke:none"/>
<rect width="13" height="217" x="584" y="40" rx="0" ry="0" style="fill:none;stroke-width:1;stroke:rgb(0,0,0)"/>
<line x1="590" y1="40" x2="590" y2="40" stroke="rgb(0,0,0)" stroke-width="1"/>
<line x1="584" y1="40" x2="597" y2="40" stroke="rgb(0,0,0)" stroke-width="1"/>
<line x1="590" y1="358" x2="590" y2="257" stroke="rgb(0,0,0)" stroke-width="1"/>
<line x1="584" y1="358" x2="597" y2="358" stroke="rgb(0,0,0)" stroke-width="1"/>
<line x1="584" y1="40" x2="597" y2="40" stroke="rgb(200,0,0)" stroke-width="1"/>
<rect width="13" height="174" x="601" y="40" style="fill:rgb(240,240,0);stroke:none"/>
<rect width="13" height="174" x="601" y="40" rx="0" ry="0" style="fill:none;stroke-width:1;stroke:rgb(0,0,0)"/>
<line x1="607" y1="40" x2="607" y2="40" stroke="rgb(0,0,0)" stroke-width="1"/>
<line x1="601" y1="40" x2="614" y2="40" stroke="rgb(0,0,0)" stroke-width="1"/>
<line x1="607" y1="358" x2="607" y2="214" stroke="rgb(0,0,0)" stroke-width="1"/>
<line x1="601" y1="358" x2="614" y2="358" stroke="rgb(0,0,0)" stroke-width="1"/>
<line x1="601" y1="40" x2="614" y2="40" stroke="rgb(200,0,0)" stroke-width="1"/>
<rect width="13" height="130" x="618" y="40" style="fill:rgb(240,240,0);stroke:none"/>
<rect width="13" height="130" x="618" y="40" rx="0" ry="0" style="fill:none;stroke-width:1;stroke:rgb(0,0,0)"/>
<line x1="624" y1="40" x2="624" y2="40" stroke="rgb(0,0,0)" stroke-width="1"/>
<line x1="618" y1="40" x2="631" y2="40" stroke="rgb(0,0,0)" stroke-width="1"/>
<line x1="624" y1="358" x2="624" y2="170" stroke="rgb(0,0,0)" stroke-width="1"/>
<line x1="618" y1="358" x2="631" y2="358" stroke="rgb(0,0,0)" stroke-width="1"/>
<line x1="618" y1="40" x2="631" y2="40" stroke="rgb(200,0,0)" stroke-width="1"/>
<rect width="13" height="217" x="635" y="40" style="fill:rgb(240,240,0);stroke:none"/>
<rect width="13" height="217" x="635" y="40" rx="0" ry="0" style="fill:none;stroke-width:1;stroke:rgb(0,0,0)"/>
<line x1="641" y1="40" x2="641" y2="40" stroke="rgb(0,0,0)" stroke-width="1"/>
<line x1="635" y1="40" x2="648" y2="40" stroke="rgb(0,0,0)" stroke-width="1"/>
<line x1="641" y1="358" x2="641" y2="257" stroke="rgb(0,0,0)" stroke-width="1"/>
<line x1="635" y1="358" x2="648" y2="358" stroke="rgb(0,0,0)" stroke-width="1"/>
<line x1="635" y1="40" x2="648" y2="40" stroke="rgb(200,0,0)" stroke-width="1"/>
<rect width="13" height="318" x="652" y="40" style="fill:rgb(240,240,0);stroke:none"/>
<rect width="13" height="318" x="652" y="40" rx="0" ry="0" style="fill:none;stroke-width:1;stroke:rgb(0,0,0)"/>
<line x1="658" y1="40" x2="658" y2="40" stroke="rgb(0,0,0)" stroke-width="1"/>
<line x1="652" y1="40" x2="665" y2="40" stroke="rgb(0,0,0)" stroke-width="1"/>
<line x1="658" y1="358" x2="658" y2="358" stroke="rgb(0,0,0)" stroke-width="1"/>
<line x1="652" y1="358" x2="665" y2="358" stroke="rgb(0,0,0)" stroke-width="1"/>
<line x1="652" y1="40" x2="665" y2="40" stroke="rgb(200,0,0)" stroke-width="1"/>
<rect width="13" height="224" x="669" y="40" style="fill:rgb(240,240,0);stroke:none"/>
<rect width="13" height="224" x="669" y="40" rx="0" ry="0" style="fill:none;stroke-width:1;stroke:rgb(0,0,0)"/>
<line x1="675" y1="40" x2="675" y2="40" stroke="rgb(0,0,0)" stroke-width="1"/>
<line x1="669" y1="40" x2="682" y2="40" stroke="rgb(0,0,0)" stroke-width="1"/>
<line x1="675" y1="358" x2="675" y2="264" stroke="rgb(0,0,0)" stroke-width="1"/>
<line x1="669" y1="358" x2="682" y2="358" stroke="rgb(0,0,0)" stroke-width="1"/>
<line x1="669" y1="40" x2="682" y2="40" stroke="rgb(200,0,0)" stroke-width="1"/>
<rect width="13" height="130" x="686" y="40" style="fill:rgb(240,240,0);stroke:none"/>
<rect width="13" height="130" x="686" y="40" rx="0" ry="0" style="fill:none;stroke-width:1;stroke:rgb(0,0,0)"/>
<line x1="692" y1="40" x2="692" y2="40" stroke="rgb(0,0,0)" stroke-width="1"/>
<line x1="686" y1="40" x2="699" y2="40" stroke="rgb(0,0,0)" stroke-width="1"/>
<line x1="692" y1="358" x2="692" y2="170" stroke="rgb(0,0,0)" stroke-width="1"/>
<line x1="686" y1="358" x2="699" y2="358" stroke="rgb(0,0,0)" stroke-width="1"/>
<line x1="686" y1="40" x2="699" y2="40" stroke="rgb(200,0,0)" stroke-width="1"/>
<rect width="13" height="130" x="703" y="40" style="fill:rgb(240,240,0);stroke:none"/>
<rect width="13" height="130" x="703" y="40" rx="0" ry="0" style="fill:none;stroke-width:1;stroke:rgb(0,0,0)"/>
<line x1="709" y1="40" x2="709" y2="40" stroke="rgb(0,0,0)" stroke-width="1"/>
<line x1="703" y1="40" x2="716" y2="40" stroke="rgb(0,0,0)" stroke-width="1"/>
<line x1="709" y1="358" x2="709" y2="170" stroke="rgb(0,0,0)" stroke-width="1"/>
<line x1="703" y1="358" x2="716" y2="358" stroke="rgb(0,0,0)" stroke-width="1"/>
<line x1="703" y1="40" x2="716" y2="40" stroke="rgb(200,0,0)" stroke-width="1"/>
<rect width="13" height="318" x="720" y="40" style="fill:rgb(240,240,0);stroke:none"/>
<rect width="13" height="318" x="720" y="40" rx="0" ry="0" style="fill:none;stroke-width:1;stroke:rgb(0,0,0)"/>
<line x1="726" y1="40" x2="726" y2="40" stroke="rgb(0,0,0)" stroke-width="1"/>
<line x1="720" y1="40" x2="733" y2="40" stroke="rgb(0,0,0)" stroke-width="1"/>
<line x1="726" y1="358" x2="726" y2="358" stroke="rgb(0,0,0)" stroke-width="1"/>
<line x1="720" y1="358" x2="733" y2="358" stroke="rgb(0,0,0)" stroke-width="1"/>
<line x1="720" y1="40" x2="733" y2="40" stroke="rgb(200,0,0)" stroke-width="1"/>
<rect width="13" height="318" x="737" y="40" style="fill:rgb(240,240,0);stroke:none"/>
<rect width="13" height="318" x="737" y="40" rx="0" ry="0" style="fill:none;stroke-width:1;stroke:rgb(0,0,0)"/>
<line x1="743" y1="40" x2="743" y2="40" stroke="rgb(0,0,0)" stroke-width="1"/>
<line x1="737" y1="40" x2="750" y2="40" stroke="rgb(0,0,0)" stroke-width="1"/>
<line x1="743" y1="358" x2="743" y2="358" stroke="rgb(0,0,0)" stroke-width="1"/>
<line x1="737" y1="358" x2="750" y2="358" stroke="rgb(0,0,0)" stroke-width="1"/>
<line x1="737" y1="98" x2="750" y2="98" stroke="rgb(200,0,0)" stroke-width="1"/>
<line x1="29" y1="118" x2="46" y2="116" stroke="rgb(0,0,200)" stroke-width="1"/>
<line x1="46" y1="116" x2="63" y2="112" stroke="rgb(0,0,200)" stroke-width="1"/>
<line x1="63" y1="112" x2="80" y2="111" stroke="rgb(0,0,200)" stroke-width="1"/>
<line x1="80" y1="111" x2="97" y2="111" stroke="rgb(0,0,200)" stroke-width="1"/>
<line x1="97" y1="111" x2="114" y2="67" stroke="rgb(0,0,200)" stroke-width="1"/>
<line x1="114" y1="67" x2="131" y2="69" stroke="rgb(0,0,200)" stroke-width="1"/>
<line x1="131" y1="69" x2="148" y2="68" stroke="rgb(0,0,200)" stroke-width="1"/>
<line x1="148" y1="68" x2="165" y2="68" stroke="rgb(0,0,200)" stroke-width="1"/>
<line x1="165" y1="68" x2="182" y2="70" stroke="rgb(0,0,200)" stroke-width="1"/>
<line x1="182" y1="70" x2="199" y2="68" stroke="rgb(0,0,200)" stroke-width="1"/>
<line x1="199" y1="68" x2="216" y2="69" stroke="rgb(0,0,200)" stroke-width="1"/>
<line x1="216" y1="69" x2="233" y2="68" stroke="rgb(0,0,200)" stroke-width="1"/>
<line x1="233" y1="68" x2="250" y2="68" stroke="rgb(0,0,200)" stroke-width="1"/>
<line x1="250" y1="68" x2="267" y2="69" stroke="rgb(0,0,200)" stroke-width="1"/>
<line x1="267" y1="69" x2="284" y2="74" stroke="rgb(0,0,200)" stroke-width="1"/>
<line x1="284" y1="74" x2="301" y2="71" stroke="rgb(0,0,200)" stroke-width="1"/>
<line x1="301" y1="71" x2="318" y2="74" stroke="rgb(0,0,200)" stroke-width="1"/>
<line x1="318" y1="74" x2="335" y2="76" stroke="rgb(0,0,200)" stroke-width="1"/>
<line x1="335" y1="76" x2="352" y2="77" stroke="rgb(0,0,200)" stroke-width="1"/>
<line x1="352" y1="77" x2="369" y2="80" stroke="rgb(0,0,200)" stroke-width="1"/>
<line x1="369" y1="80" x2="386" y2="85" stroke="rgb(0,0,200)" stroke-width="1"/>
<line x1="386" y1="85" x2="403" y2="84" stroke="rgb(0,0,200)" stroke-width="1"/>
<line x1="403" y1="84" x2="420" y2="87" stroke="rgb(0,0,200)" stroke-width="1"/>
<line x1="420" y1="87" x2="437" y2="89" stroke="rgb(0,0,200)" stroke-width="1"/>
<line x1="437" y1="89" x2="454" y2="101" stroke="rgb(0,0,200)" stroke-width="1"/>
<line x1="454" y1="101" x2="471" y2="118" stroke="rgb(0,0,200)" stroke-width="1"/>
<line x1="471" y1="118" x2="488" y2="114" stroke="rgb(0,0,200)" stroke-width="1"/>
<line x1="488" y1="114" x2="505" y2="121" stroke="rgb(0,0,200)" stroke-width="1"/>
<line x1="505" y1="121" x2="522" y2="126" stroke="rgb(0,0,200)" stroke-width="1"/>
<line x1="522" y1="126" x2="539" y2="129" stroke="rgb(0,0,200)" stroke-width="1"/>
<line x1="539" y1="129" x2="556" y2="126" stroke="rgb(0,0,200)" stroke-width="1"/>
<line x1="556" y1="126" x2="573" y2="128" stroke="rgb(0,0,200)" stroke-width="1"/>
<line x1="573" y1="128" x2="590" y2="132" stroke="rgb(0,0,200)" stroke-width="1"/>
<line x1="590" y1="132" x2="607" y2="133" stroke="rgb(0,0,200)" stroke-width="1"/>
<line x1="607" y1="133" x2="624" y2="131" stroke="rgb(0,0,200)" stroke-width="1"/>
<line x1="624" y1="131" x2="641" y2="135" stroke="rgb(0,0,200)" stroke-width="1"/>
<line x1="641" y1="135" x2="658" y2="138" stroke="rgb(0,0,200)" stroke-width="1"/>
<line x1="658" y1="138" x2="675" y2="134" stroke="rgb(0,0,200)" stroke-width="1"/>
<line x1="675" y1="134" x2="692" y2="127" stroke="rgb(0,0,200)" stroke-width="1"/>
<line x1="692" y1="127" x2="709" y2="130" stroke="rgb(0,0,200)" stroke-width="1"/>
<line x1="709" y1="130" x2="726" y2="141" stroke="rgb(0,0,200)" stroke-width="1"/>
<line x1="726" y1="141" x2="743" y2="180" stroke="rgb(0,0,200)" stroke-width="1"/>
</svg>
